# AST/ASF file generated using VICON BodyLanguage
# -----------------------------------------------
:version 1.10
:name VICON
:units
  mass 1.0
  length 0.45
  angle deg
:documentation
   .ast/.asf automatically generated from VICON data using
   VICON BodyBuilder and BodyLanguage model FoxedUp or BRILLIANT.MOD
:root
   order TX TY TZ RX RY RZ
   axis XYZ
   position 0 0 0  
   orientation 0 0 0 
:bonedata
  begin
     id 1 
     name lhipjoint
     direction 0.756833 -0.6125 0.228138 
     length 2.53827 
     axis 0 0 0  XYZ
  end
  begin
     id 2 
     name lfemur
     direction 0.34202 -0.939693 0  
     length 6.51821  
     axis 0 0 20  XYZ
    dof rx ry rz
    limits (-160.0 20.0)
           (-70.0 70.0)
           (-60.0 70.0)
  end
  begin
     id 3 
     name ltibia
     direction 0.34202 -0.939693 0   
     length 6.99902   
     axis 0 0 20   XYZ
    dof rx
    limits (-10.0 170.0)
  end
  begin
     id 4 
     name lfoot
     direction 0.0951515 -0.261427 0.960522   
     length 1.92102   
     axis -90 7.62852e-016 20   XYZ
    dof rx rz
    limits (-45.0 90.0)
           (-70.0 20.0)
  end
  begin
     id 5 
     name ltoes
     direction 1.53539e-011 -4.21781e-011 1   
     length 0.964376   
     axis -90 7.62852e-016 20   XYZ
    dof rx
    limits (-90.0 20.0)
  end
  begin
     id 6 
     name rhipjoint
     direction -0.752153 -0.617542 0.230017   
     length 2.51754  
     axis 0 0 0  XYZ 
  end
  begin
     id 7 
     name rfemur
     direction -0.34202 -0.939693 0   
     length 6.82377   
     axis 0 0 -20   XYZ
    dof rx ry rz
    limits (-160.0 20.0)
           (-70.0 70.0)
           (-70.0 60.0)
  end
  begin
     id 8 
     name rtibia
     direction -0.34202 -0.939693 0   
     length 6.98689   
     axis 0 0 -20   XYZ
    dof rx
    limits (-10.0 170.0)
 end
 begin
     id 9 
     name rfoot
     direction -0.0900426 -0.24739 0.964723   
     length 2.03215  
     axis -90 -7.62852e-016 -20   XYZ
    dof rx rz
    limits (-45.0 90.0)
           (-20.0 70.0)
  end
  begin
     id 10 
     name rtoes
     direction -1.53466e-011 -4.22206e-011 1   
     length 1.0197   
     axis -90 -7.62852e-016 -20   XYZ
    dof rx
    limits (-90.0 20.0)
  end
  begin
     id 11 
     name lowerback
     direction 0.0184183 0.995705 -0.0907278   
     length 2.019   
     axis 0 0 0   XYZ
    dof rx ry rz
    limits (-20.0 45.0)
           (-30.0 30.0)
           (-30.0 30.0)
  end
  begin
     id 12 
     name upperback
     direction 0.00281055 0.998777 0.0493607   
     length 1.99623   
     axis 0 0 0   XYZ
    dof rx ry rz
    limits (-20.0 45.0)
           (-30.0 30.0)
           (-30.0 30.0)
  end
  begin
     id 13 
     name thorax
     direction -0.00665507 0.995706 0.092331   
     length 2.02811   
     axis 0 0 0   XYZ
    dof rx ry rz
    limits (-20.0 45.0)
           (-30.0 30.0)
           (-30.0 30.0)
  end
  begin
     id 14 
     name lowerneck
     direction -0.0960965 0.994358 0.0449225   
     length 1.71265   
     axis 0 0 0   XYZ
    dof rx ry rz
    limits (-20.0 45.0)
           (-30.0 30.0)
           (-30.0 30.0)
  end
  begin
     id 15 
     name upperneck
     direction 0.13642 0.985357 -0.102278   
     length 1.73016   
     axis 0 0 0   XYZ
    dof rx ry rz
    limits (-20.0 45.0)
           (-30.0 30.0)
           (-30.0 30.0)
  end
  begin
     id 16
     name head
     direction 0.0556079 0.997632 -0.040479  
     length 1.74275  
     axis 0 0 0   XYZ
    dof rx ry rz
    limits (-20.0 45.0)
           (-30.0 30.0)
           (-30.0 30.0)
  end
  begin
     id 17 
     name lclavicle
     direction 0.90877 0.417247 -0.00652364  
     length 3.25514  
     axis 0 0 0   XYZ
    dof ry rz
    limits (-20.0 10.0)
           (0.0 20.0)
  end
  begin
     id 18 
     name lhumerus
     direction 1 -4.48949e-011 8.31417e-028   
     length 4.84834   
     axis 180 -30 -90   XYZ
    dof rx ry rz
    limits (-60.0 90.0)
           (-90.0 90.0)
           (-90.0 90.0)
  end
  begin
     id 19
     name lradius
     direction 1 -4.48984e-011 3.45616e-027   
     length 2.99713   
     axis 180 -30 -90   XYZ
    dof rx
    limits (-10.0 170.0)
  end
  begin
     id 20
     name lwrist
     direction 1 -4.4891e-011 4.0479e-027   
     length 1.49857   
     axis -1.61768e-015 90 90   XYZ
    dof ry
    limits (-180.0 0.0)
 end
  begin
     id 21 
     name lhand
     direction 1 -4.49025e-011 8.0958e-027   
     length 0.693987   
     axis -5.16581e-015 90 90   XYZ
    dof rx rz
    limits (-90.0 90.0)
           (-45.0 45.0)
  end
  begin
     id 22 
     name lfingers
     direction 1 -4.4888e-011 1.61916e-026   
     length 0.55951   
     axis -1.03316e-014 90 90   XYZ
    dof rx
    limits (0.0 90.0)
  end
  begin
     id 23
     name lthumb
     direction 0.707107 -6.3493e-011 0.707107   
     length 0.803348   
     axis -90 45 2.85299e-015   XYZ
    dof rx rz
    limits (-45.0 45.0)
           (-45.0 45.0)
  end
  begin
     id 24 
     name rclavicle
     direction -0.906655 0.41906 0.0486307   
     length 3.3311  
     axis 0 0 0   XYZ 
    dof ry rz
    limits (-10.0 20.0)
           (-20.0 0.0)
  end
  begin
     id 25 
     name rhumerus
     direction -1 -4.48959e-011 6.37764e-018  
     length 4.93457   
     axis 180 30 90   XYZ
    dof rx ry rz
    limits (-90.0 60.0)
           (-90.0 90.0)
           (-90.0 90.0)
  end
  begin
     id 26 
     name rradius
     direction -1 -4.48957e-011 2.20847e-027   
     length 3.3443   
     axis 180 30 90   XYZ
    dof rx
    limits (-10.0 170.0)
  end
  begin
     id 27 
     name rwrist
     direction -1 -4.49008e-011 4.0479e-027   
     length 1.67215   
     axis -1.61768e-015 -90 -90   XYZ
    dof ry
    limits (-180.0 0.0)
  end
  begin
     id 28
     name rhand
     direction -1 -4.49013e-011 8.0958e-027   
     length 0.677363   
     axis -5.16581e-015 -90 -90   XYZ
    dof rx rz
    limits (-90.0 90.0)
           (-45.0 45.0)
  end
  begin
     id 29
     name rfingers
     direction -1 -4.48832e-011 1.61916e-026   
     length 0.546107   
     axis -1.03316e-014 -90 -90   XYZ
    dof rx
    limits (0.0 90.0)
  end
  begin
     id 30
     name rthumb
     direction -0.707107 -6.34895e-011 0.707107   
     length 0.784104   
     axis -90 -45 -2.85299e-015   XYZ
    dof rx rz
    limits (-45.0 45.0)
           (-45.0 45.0)
  end
:hierarchy
  begin
    root lhipjoint rhipjoint lowerback
    lhipjoint lfemur
    lfemur ltibia
    ltibia lfoot
    lfoot ltoes
    rhipjoint rfemur
    rfemur rtibia
    rtibia rfoot
    rfoot rtoes
    lowerback upperback
    upperback thorax
    thorax lowerneck lclavicle rclavicle
    lowerneck upperneck
    upperneck head
    lclavicle lhumerus
    lhumerus lradius
    lradius lwrist
    lwrist lhand lthumb
    lhand lfingers
    rclavicle rhumerus
    rhumerus rradius
    rradius rwrist
    rwrist rhand rthumb
    rhand rfingers
  end

#!OML:ASF H:\Terrain\Patient Classification 1\junglegym\FridayTest\junglegym.ASF
:FULLY-SPECIFIED
:DEGREES
130
root 9.09079 16.1478 -17.304 6.8152 0.142246 0.747865
lowerback 1.52058 -2.45688 -2.6593
upperback -3.37292 -3.33538 1.35127
thorax -4.09968 -1.55238 3.04674
lowerneck -5.41454 -1.16995 -14.3228
upperneck 14.93 -2.06372 13.7605
head 5.60971 -0.894098 6.70135
rclavicle -3.3576e-014 -1.61016e-014
rhumerus -47.2682 -11.058 -72.5212
rradius 18.4951
rwrist 11.7694
rhand -15.9643 27.4724
rfingers 7.12502
rthumb 10.2346 -2.25863
lclavicle -3.3576e-014 -1.61016e-014
lhumerus -29.2465 -3.6113 82.5021
lradius 39.2269
lwrist -19.7323
lhand -11.5464 22.1993
lfingers 7.12502
lthumb 14.4941 51.673
rfemur -41.8214 15.7385 10.3345
rtibia 18.1511
rfoot -17.2463 -24.2371
rtoes 16.9317
lfemur 9.45145 -7.14288 -28.59
ltibia 6.57463
lfoot -13.73 11.7627
ltoes -22.3948
131
root 9.07123 16.1305 -17.1022 6.81828 0.373648 0.586016
lowerback 1.49418 -2.55143 -2.59177
upperback -3.37095 -3.45402 1.48201
thorax -4.07025 -1.61223 3.14762
lowerneck -5.33788 -1.14778 -14.4441
upperneck 14.8306 -2.03557 13.8535
head 5.56275 -0.883171 6.75278
rclavicle -7.83646e-015 5.76476e-015
rhumerus -47.6297 -11.6539 -71.7345
rradius 18.1828
rwrist 12.4269
rhand -15.8165 27.2888
rfingers 7.12502
rthumb 10.3772 -2.43519
lclavicle -7.83646e-015 5.76476e-015
lhumerus -29.1515 -3.48571 82.4202
lradius 39.5876
lwrist -19.8737
lhand -12.6479 21.7464
lfingers 7.12502
lthumb 13.4326 51.2933
rfemur -42.2136 18.1828 8.70649
rtibia 17.1136
rfoot -19.5653 -26.8673
rtoes 19.1345
lfemur 11.8361 -6.69979 -28.2361
ltibia 3.39712
lfoot -12.0631 10.8285
ltoes -21.325
132
root 9.05242 16.116 -16.8953 6.74656 0.562032 0.679701
lowerback 1.4898 -2.64047 -2.70989
upperback -3.39301 -3.57673 1.50362
thorax -4.07395 -1.66891 3.24155
lowerneck -5.21417 -1.10035 -14.5124
upperneck 14.9207 -1.98364 13.8365
head 5.56119 -0.867425 6.76421
rclavicle -3.4486e-014 -2.78299e-015
rhumerus -48.0717 -12.1361 -71.0308
rradius 17.9096
rwrist 13.0364
rhand -15.8005 26.7717
rfingers 7.12502
rthumb 10.3926 -2.9515
lclavicle -3.4486e-014 -2.78299e-015
lhumerus -29.1379 -3.26907 82.2863
lradius 39.7155
lwrist -20.1984
lhand -13.0322 21.5031
lfingers 7.12502
lthumb 13.0622 51.0741
rfemur -41.6549 17.3846 9.17475
rtibia 16.0854
rfoot -20.5945 -25.9025
rtoes 21.205
lfemur 14.4246 -6.24103 -28.1332
ltibia -8.90555e-014
lfoot -10.4593 9.75623
ltoes -20.851
133
root 9.03358 16.098 -16.6855 6.50624 0.639423 0.842901
lowerback 1.61776 -2.70689 -2.93016
upperback -3.33236 -3.67704 1.49082
thorax -4.06384 -1.7129 3.36043
lowerneck -5.09561 -1.07094 -14.4383
upperneck 14.892 -1.94395 13.6958
head 5.5247 -0.856707 6.70436
rclavicle -9.81189e-015 7.55382e-015
rhumerus -48.3694 -12.7198 -70.3162
rradius 17.549
rwrist 13.7685
rhand -15.7361 26.2885
rfingers 7.12502
rthumb 10.4548 -3.43151
lclavicle -9.81189e-015 7.55382e-015
lhumerus -29.1303 -3.2509 82.1463
lradius 39.7644
lwrist -20.3001
lhand -12.6385 21.0252
lfingers 7.12502
lthumb 13.4416 50.5715
rfemur -40.9211 16.7557 9.721
rtibia 15.2535
rfoot -20.1492 -25.6603
rtoes 18.8535
lfemur 15.4403 -5.65866 -28.1285
ltibia -2.22639e-014
lfoot -10.5672 8.93808
ltoes -19.3387
134
root 9.01359 16.0684 -16.4787 6.25999 0.621274 0.82594
lowerback 1.76786 -2.7492 -2.99668
upperback -3.22529 -3.73797 1.52786
thorax -4.02631 -1.74271 3.44306
lowerneck -5.10111 -1.02288 -14.4018
upperneck 14.7907 -1.88045 13.7454
head 5.48447 -0.819877 6.71571
rclavicle -1.83565e-014 7.55382e-015
rhumerus -48.5407 -13.4286 -69.5175
rradius 17.1328
rwrist 14.7685
rhand -15.4853 25.9048
rfingers 7.12502
rthumb 10.6967 -3.80286
lclavicle -1.83565e-014 7.55382e-015
lhumerus -29.1225 -3.41715 82.0722
lradius 39.9502
lwrist -19.885
lhand -11.8585 21.2001
lfingers 7.12502
lthumb 14.1934 50.6952
rfemur -40.2612 16.276 10.5165
rtibia 14.7192
rfoot -18.8904 -25.7195
rtoes 15.5478
lfemur 16.4737 -4.96111 -27.9646
ltibia -4.13472e-014
lfoot -10.5866 8.43597
ltoes -22.2642
135
root 8.99351 16.0413 -16.2701 6.1655 0.587685 0.744335
lowerback 1.76453 -2.78587 -2.95545
upperback -3.18845 -3.7836 1.56693
thorax -3.98236 -1.76766 3.4607
lowerneck -5.16203 -0.963982 -14.4219
upperneck 14.8294 -1.80781 13.8512
head 5.49584 -0.777179 6.76098
rclavicle 2.00182e-014 -2.06736e-014
rhumerus -48.9007 -14.0319 -68.7831
rradius 16.9078
rwrist 15.7773
rhand -15.1494 26.0552
rfingers 7.12502
rthumb 11.0207 -3.6355
lclavicle 2.00182e-014 -2.06736e-014
lhumerus -29.1271 -3.43173 81.9517
lradius 40.1051
lwrist -19.7584
lhand -12.1868 21.8534
lfingers 7.12502
lthumb 13.877 51.3704
rfemur -39.4054 13.9343 12.6173
rtibia 14.4451
rfoot -16.9286 -23.3822
rtoes 13.4141
lfemur 16.8746 -4.27411 -27.6671
ltibia 0.875967
lfoot -10.7811 8.00783
ltoes -25.3719
136
root 8.97192 16.0287 -16.0577 6.2281 0.620712 0.622068
lowerback 1.62962 -2.80461 -2.81682
upperback -3.26457 -3.79991 1.58177
thorax -3.99132 -1.77883 3.39427
lowerneck -4.96692 -0.961215 -14.4354
upperneck 14.7051 -1.81231 13.8089
head 5.42438 -0.788598 6.74405
rclavicle 3.60608e-014 -1.82882e-014
rhumerus -49.4686 -14.3359 -68.3199
rradius 16.9648
rwrist 16.274
rhand -14.7001 26.8734
rfingers 7.12502
rthumb 11.454 -2.79376
lclavicle 3.60608e-014 -1.82882e-014
lhumerus -29.2185 -3.32681 81.7608
lradius 40.0789
lwrist -20.0612
lhand -12.5978 21.6578
lfingers 7.12502
lthumb 13.4808 51.2015
rfemur -38.8966 11.7093 14.5683
rtibia 14.6912
rfoot -14.3731 -20.8033
rtoes 11.8538
lfemur 16.1098 -3.68427 -27.2094
ltibia 3.62895
lfoot -11.3664 7.14305
ltoes -21.8324
137
root 8.9479 16.0221 -15.8421 6.26194 0.656679 0.314915
lowerback 1.46356 -2.80303 -2.51717
upperback -3.30026 -3.78048 1.65553
thorax -3.9492 -1.778 3.294
lowerneck -4.94138 -1.03656 -14.1908
upperneck 14.677 -1.89117 13.4495
head 5.42149 -0.836786 6.57388
rclavicle 1.45765e-014 -4.37326e-015
rhumerus -49.8916 -14.396 -68.1083
rradius 17.0702
rwrist 16.2379
rhand -14.2885 27.2884
rfingers 7.12502
rthumb 11.8509 -2.35621
lclavicle 1.45765e-014 -4.37326e-015
lhumerus -29.3213 -3.32966 81.6311
lradius 39.8819
lwrist -20.1197
lhand -12.7427 20.9285
lfingers 7.12502
lthumb 13.3412 50.4814
rfemur -38.7362 9.92346 16.3816
rtibia 15.6933
rfoot -11.8209 -18.3193
rtoes 13.5876
lfemur 16.3249 -3.08566 -26.5351
ltibia 4.53389
lfoot -10.6974 6.20369
ltoes -18.899
138
root 8.92355 16.0139 -15.6186 6.05942 0.709334 0.123437
lowerback 1.43956 -2.84703 -2.39392
upperback -3.25484 -3.83009 1.77463
thorax -3.88444 -1.80662 3.34694
lowerneck -5.15923 -1.07034 -14.0692
upperneck 14.9886 -1.90201 13.1474
head 5.5561 -0.849432 6.45938
rclavicle 5.10939e-015 -3.97569e-015
rhumerus -50.1254 -14.4103 -67.784
rradius 16.9184
rwrist 16.2722
rhand -14.2849 26.4944
rfingers 7.12502
rthumb 11.8544 -3.15009
lclavicle 5.10939e-015 -3.97569e-015
lhumerus -29.5876 -3.27425 81.6111
lradius 39.8292
lwrist -20.1491
lhand -12.7309 20.7731
lfingers 7.12502
lthumb 13.3526 50.3253
rfemur -38.5974 8.56983 17.7708
rtibia 17.1798
rfoot -9.92115 -16.3026
rtoes 17.4909
lfemur 17.0091 -2.48217 -26.0463
ltibia 5.02454
lfoot -9.90747 6.03091
ltoes -23.545
139
root 8.90035 15.9979 -15.3871 5.82787 0.648957 0.39595
lowerback 1.3439 -2.86728 -2.70144
upperback -3.17654 -3.86649 1.74337
thorax -3.72914 -1.82024 3.47862
lowerneck -5.13957 -0.99892 -14.31
upperneck 15.0457 -1.81108 13.3295
head 5.5588 -0.807914 6.57008
rclavicle 9.31337e-015 1.31198e-014
rhumerus -50.3377 -14.6264 -67.3389
rradius 16.7589
rwrist 16.5758
rhand -14.2501 25.4922
rfingers 7.12502
rthumb 11.8879 -4.15036
lclavicle 9.31337e-015 1.31198e-014
lhumerus -29.8509 -3.15121 81.5871
lradius 39.8417
lwrist -20.1327
lhand -11.6574 20.991
lfingers 7.12502
lthumb 14.3872 50.4724
rfemur -38.5134 7.28095 18.5592
rtibia 18.7374
rfoot -8.36302 -14.2456
rtoes 19.6031
lfemur 17.6489 -1.81398 -26.0314
ltibia 5.76865
lfoot -9.427 5.57512
ltoes -26.2107
140
root 8.87698 15.9846 -15.1534 5.68269 0.507859 0.614142
lowerback 1.1754 -2.85753 -2.92606
upperback -3.12714 -3.85842 1.67825
thorax -3.57356 -1.81478 3.52425
lowerneck -5.06223 -0.915344 -14.3767
upperneck 14.9247 -1.70784 13.4528
head 5.49288 -0.755038 6.62581
rclavicle -2.73655e-014 1.78906e-014
rhumerus -50.5974 -14.7741 -67.1151
rradius 16.7964
rwrist 16.7121
rhand -13.915 25.1458
rfingers 7.12502
rthumb 12.2111 -4.47775
lclavicle -2.73655e-014 1.78906e-014
lhumerus -30.0228 -3.17238 81.5496
lradius 39.6025
lwrist -19.9164
lhand -9.43203 21.2333
lfingers 7.12502
lthumb 16.5305 50.5491
rfemur -38.5464 6.65614 18.9314
rtibia 20.2123
rfoot -6.97579 -12.7024
rtoes 21.4412
lfemur 17.9402 -1.08443 -25.8859
ltibia 6.94672
lfoot -8.98573 4.52133
ltoes -24.2083
141
root 8.85459 15.9952 -14.9196 5.43281 0.615929 0.312172
lowerback 1.23599 -2.92366 -2.60591
upperback -3.11906 -3.93459 1.783
thorax -3.60641 -1.85989 3.45961
lowerneck -5.03481 -0.882524 -14.2734
upperneck 14.9656 -1.65659 13.2895
head 5.49237 -0.735882 6.55649
rclavicle 1.10551e-014 -6.75868e-015
rhumerus -50.8711 -14.7684 -66.9178
rradius 16.8164
rwrist 16.6985
rhand -13.8261 24.7891
rfingers 7.12502
rthumb 12.2968 -4.82929
lclavicle 1.10551e-014 -6.75868e-015
lhumerus -30.352 -3.19771 81.5323
lradius 39.3505
lwrist -19.8823
lhand -11.3229 21.0001
lfingers 7.12502
lthumb 14.7094 50.4582
rfemur -38.3181 6.58912 19.3754
rtibia 21.4372
rfoot -5.69286 -12.0305
rtoes 26.1391
lfemur 17.7412 -0.542389 -25.1512
ltibia 9.10234
lfoot -8.50128 3.58491
ltoes -24.045
142
root 8.83249 16.014 -14.682 5.23217 0.812901 -0.160354
lowerback 1.17759 -3.01234 -2.06536
upperback -3.06369 -4.02973 1.93786
thorax -3.53316 -1.92284 3.31516
lowerneck -5.17285 -0.906826 -14.2949
upperneck 15.1 -1.65925 13.1522
head 5.55905 -0.743803 6.51814
rclavicle -3.09933e-014 -1.11319e-014
rhumerus -51.0124 -14.9975 -66.4876
rradius 16.758
rwrist 16.9953
rhand -13.8366 24.903
rfingers 7.12502
rthumb 12.2867 -4.716
lclavicle -3.09933e-014 -1.11319e-014
lhumerus -30.7182 -3.15315 81.4943
lradius 39.2515
lwrist -19.9419
lhand -9.16358 21.8151
lfingers 7.12502
lthumb 16.789 51.1093
rfemur -37.9643 6.34518 20.0258
rtibia 22.3603
rfoot -4.44662 -11.6474
rtoes 30.8655
lfemur 17.0668 -0.0781019 -24.2006
ltibia 12.0339
lfoot -8.06657 2.7739
ltoes -26.5066
143
root 8.80523 16.0157 -14.4438 5.17758 0.824177 -0.705202
lowerback 0.883202 -3.00505 -1.50551
upperback -3.00556 -3.99504 2.11351
thorax -3.33363 -1.92294 3.16221
lowerneck -5.43617 -0.956349 -14.4857
upperneck 15.2965 -1.68622 13.1591
head 5.67195 -0.760524 6.55916
rclavicle -9.63329e-015 1.15295e-014
rhumerus -51.1616 -15.3509 -66.0001
rradius 16.7695
rwrist 17.6619
rhand -13.6113 25.6464
rfingers 7.12502
rthumb 12.5038 -3.95948
lclavicle -9.63329e-015 1.15295e-014
lhumerus -31.0313 -3.06785 81.5168
lradius 39.0227
lwrist -20.0339
lhand -11.5202 20.8034
lfingers 7.12502
lthumb 14.5194 50.2754
rfemur -37.6939 5.7703 21.0685
rtibia 23.202
rfoot -3.18415 -11.3921
rtoes 31.7365
lfemur 16.1067 0.747973 -23.0629
ltibia 15.1351
lfoot -7.34713 1.75777
ltoes -29.6884
